HIERARCHY
ROOT joint_Root
{
	OFFSET 0.0 0.0 0.0
	CHANNELS 6 Xposition Yposition Zposition Zrotation Xrotation Yrotation 
	JOINT Hips
	{
		OFFSET -0.726466 93.3139 -2.00062
		CHANNELS 6 Xposition Yposition Zposition Zrotation Xrotation Yrotation 
		JOINT Spine
		{
			OFFSET 15.7357 0.0 0.0
			CHANNELS 6 Xposition Yposition Zposition Zrotation Xrotation Yrotation 
			JOINT Chest
			{
				OFFSET 8.98455 -0.406207 0.0
				CHANNELS 6 Xposition Yposition Zposition Zrotation Xrotation Yrotation 
				JOINT Neck
				{
					OFFSET 16.3773 0.0 0.0
					CHANNELS 6 Xposition Yposition Zposition Zrotation Xrotation Yrotation 
					JOINT Head
					{
						OFFSET 6.45672 0.0 0.0
						CHANNELS 6 Xposition Yposition Zposition Zrotation Xrotation Yrotation 
						End Site
						{
							OFFSET 0.0 0.0 0.0
						}
					}
				}
				JOINT Shoulder_L
				{
					OFFSET 12.9942 -0.242716 4.98039
					CHANNELS 6 Xposition Yposition Zposition Zrotation Xrotation Yrotation 
					JOINT UpperArm_L
					{
						OFFSET 5.34809 0.0 0.0
						CHANNELS 6 Xposition Yposition Zposition Zrotation Xrotation Yrotation 
						JOINT LowerArm_L
						{
							OFFSET 24.3286 1.87007e-05 0.0
							CHANNELS 6 Xposition Yposition Zposition Zrotation Xrotation Yrotation 
							JOINT Hand_L
							{
								OFFSET 22.2916 0.0 0.0
								CHANNELS 6 Xposition Yposition Zposition Zrotation Xrotation Yrotation 
								End Site
								{
									OFFSET 0.0 0.0 0.0
								}
							}
						}
					}
				}
				JOINT Shoulder_R
				{
					OFFSET 12.9945 -0.242716 -4.98039
					CHANNELS 6 Xposition Yposition Zposition Zrotation Xrotation Yrotation 
					JOINT UpperArm_R
					{
						OFFSET -5.34813 0.0 0.0
						CHANNELS 6 Xposition Yposition Zposition Zrotation Xrotation Yrotation 
						JOINT LowerArm_R
						{
							OFFSET -24.3289 0.000322201 0.0
							CHANNELS 6 Xposition Yposition Zposition Zrotation Xrotation Yrotation 
							JOINT Hand_R
							{
								OFFSET -22.2915 -0.000108084 0.0
								CHANNELS 6 Xposition Yposition Zposition Zrotation Xrotation Yrotation 
								End Site
								{
									OFFSET 0.0 0.0 0.0
								}
							}
						}
					}
				}
			}
		}
		JOINT UpperLeg_L
		{
			OFFSET -2.19248 -6.46944 0.0
			CHANNELS 6 Xposition Yposition Zposition Zrotation Xrotation Yrotation 
			JOINT LowerLeg_L
			{
				OFFSET 39.0811 0.0 -1.23785e-05
				CHANNELS 6 Xposition Yposition Zposition Zrotation Xrotation Yrotation 
				JOINT Foot_L
				{
					OFFSET 40.9854 0.0 -1.26872e-05
					CHANNELS 6 Xposition Yposition Zposition Zrotation Xrotation Yrotation 
					JOINT Toes_L
					{
						OFFSET 11.7543 0.0 0.0
						CHANNELS 6 Xposition Yposition Zposition Zrotation Xrotation Yrotation 
						End Site
						{
							OFFSET 0.0 0.0 0.0
						}
					}
				}
			}
		}
		JOINT UpperLeg_R
		{
			OFFSET -2.19251 6.46944 0.0
			CHANNELS 6 Xposition Yposition Zposition Zrotation Xrotation Yrotation 
			JOINT LowerLeg_R
			{
				OFFSET -39.0811 -0.00228153 -0.0401928
				CHANNELS 6 Xposition Yposition Zposition Zrotation Xrotation Yrotation 
				JOINT Foot_R
				{
					OFFSET -40.9854 0.0 0.0
					CHANNELS 6 Xposition Yposition Zposition Zrotation Xrotation Yrotation 
					JOINT Toes_R
					{
						OFFSET -11.7543 0.0 0.0
						CHANNELS 6 Xposition Yposition Zposition Zrotation Xrotation Yrotation 
						End Site
						{
							OFFSET 0.0 0.0 0.0
						}
					}
				}
			}
		}
	}
}
MOTION
Frames:	6
Frame Time:	0.0333333
0.000000 0.000000 0.000000 0.000000 0.000000 -0.000000 91.551100 89.907700 -124.955000 85.232900 11.731200 2.359810 15.735700 0.000005 -0.000001 76.177800 83.101000 -73.783000 8.984550 -0.406207 -0.000000 5.714150 -3.331180 4.951640 16.377300 -0.000001 -0.000001 -1.390500 -6.406460 2.087200 6.456720 -0.000001 -0.000000 -0.927746 -4.119120 -2.974530 12.994200 -0.242716 4.980390 -89.996500 -0.013029 -74.689400 5.348090 -0.000007 -0.000001 -69.259100 32.204800 -19.961900 24.328600 0.000019 0.000005 5.030810 9.267390 -28.672500 22.291600 -0.000001 0.000005 5.466250 5.483480 -5.872320 12.994500 -0.242716 -4.980390 87.805200 6.144500 -70.299600 -5.348130 -0.000001 -0.000004 -70.927600 16.677100 1.162090 -24.328900 0.000322 -0.000009 1.968200 11.803600 -9.546110 -22.291500 -0.000108 -0.000004 11.151400 5.290720 0.328052 -2.192480 -6.469440 -0.000000 -170.403000 -1.560260 -3.967180 39.081100 -0.000007 -0.000012 0.041080 -0.025763 57.901500 40.985400 -0.000006 -0.000013 8.458390 -15.338600 -42.542100 11.754300 -0.000000 0.000003 -0.008978 -0.095845 -20.480800 -2.192510 6.469440 -0.000001 -174.841000 5.553160 161.684000 -39.081100 -0.002282 -0.040193 0.052611 -0.065675 36.908200 -40.985400 0.000008 0.000006 7.088450 1.627060 -66.111100 -11.754300 -0.000006 -0.000006 -0.006788 -0.077834 -19.741500
0.000000 0.000000 0.000000 0.000000 0.000000 -0.000000 91.662600 90.431500 -121.140000 85.831800 9.909110 2.226090 15.735700 0.000005 -0.000001 83.256800 83.322600 -81.102300 8.984550 -0.406207 -0.000000 5.532010 -1.606360 4.382010 16.377300 -0.000001 -0.000001 -1.003930 -6.482910 2.093410 6.456720 -0.000001 -0.000000 -0.644430 -5.229780 -2.922960 12.994200 -0.242716 4.980390 -90.027500 0.096580 -74.096300 5.348090 -0.000007 -0.000001 -72.107300 30.565200 -16.421000 24.328600 0.000019 0.000005 5.683370 13.002800 -23.865700 22.291600 -0.000001 0.000005 4.596830 5.438570 -4.232290 12.994500 -0.242716 -4.980390 87.822800 6.307190 -70.911100 -5.348130 -0.000001 -0.000004 -71.233800 22.971200 -1.954120 -24.328900 0.000322 -0.000009 2.258240 9.552630 -13.374800 -22.291500 -0.000108 -0.000004 10.278200 5.330070 -0.789126 -2.192480 -6.469440 -0.000000 -171.907000 -2.858020 -9.293600 39.081100 -0.000007 -0.000012 0.052333 -0.024166 65.208900 40.985400 -0.000006 -0.000013 7.022560 -11.214300 -47.009600 11.754300 -0.000000 0.000003 -0.009163 -0.097282 -20.539500 -2.192510 6.469440 -0.000001 -175.302000 5.710250 165.500000 -39.081100 -0.002282 -0.040193 0.045984 -0.061153 34.920300 -40.985400 0.000008 0.000006 7.657040 3.375480 -67.726700 -11.754300 -0.000006 -0.000006 -0.006189 -0.072541 -19.525500
0.000000 0.000000 0.000000 0.000000 0.000000 -0.000000 91.884900 90.973200 -117.548000 86.659100 7.883100 1.663710 15.735700 0.000005 -0.000001 89.377500 83.603700 -87.633400 8.984550 -0.406207 -0.000000 5.030980 -0.180276 3.492190 16.377300 -0.000001 -0.000001 -0.413188 -6.085000 2.257200 6.456720 -0.000001 -0.000000 -0.169585 -6.053840 -2.808360 12.994200 -0.242716 4.980390 -89.902400 -0.319341 -73.017200 5.348090 -0.000007 -0.000001 -74.629000 28.279900 -12.390800 24.328600 0.000019 0.000005 5.512460 15.266500 -20.129900 22.291600 -0.000001 0.000005 4.161190 5.423340 -3.711930 12.994500 -0.242716 -4.980390 87.727600 6.837300 -71.565600 -5.348130 -0.000001 -0.000004 -69.373500 29.819700 -6.758170 -24.328900 0.000322 -0.000009 2.794560 9.271510 -16.858900 -22.291500 -0.000108 -0.000004 10.385200 5.344710 -1.219360 -2.192480 -6.469440 -0.000000 -173.772000 -4.923310 -14.903900 39.081100 -0.000007 -0.000012 0.072742 -0.028118 68.862100 40.985400 -0.000006 -0.000013 4.884190 -8.372990 -49.636000 11.754300 -0.000000 0.000003 -0.009410 -0.099186 -20.617300 -2.192510 6.469440 -0.000001 -176.199000 5.905610 169.101000 -39.081100 -0.002282 -0.040193 0.038786 -0.056579 32.098000 -40.985400 0.000008 0.000006 8.281700 5.325280 -68.649300 -11.754300 -0.000006 -0.000006 -0.006281 -0.073365 -19.559200
0.000000 0.000000 0.000000 0.000000 0.000000 -0.000000 92.228300 91.449400 -114.077000 87.631100 5.941800 1.429390 15.735700 0.000005 -0.000001 94.340300 83.656400 -93.064300 8.984550 -0.406207 -0.000000 4.876260 0.926160 2.509760 16.377300 -0.000001 -0.000001 0.026244 -5.586950 2.482740 6.456720 -0.000001 -0.000000 0.301578 -6.695990 -2.942180 12.994200 -0.242716 4.980390 -89.696800 -0.936863 -72.067300 5.348090 -0.000007 -0.000001 -76.345700 25.912100 -8.286720 24.328600 0.000019 0.000005 4.895940 15.417600 -17.858800 22.291600 -0.000001 0.000005 3.584440 5.406300 -3.141920 12.994500 -0.242716 -4.980390 87.753300 7.085930 -72.357500 -5.348130 -0.000001 -0.000004 -66.212300 34.621600 -13.113200 -24.328900 0.000322 -0.000009 3.591320 9.968780 -19.932200 -22.291500 -0.000108 -0.000004 10.568700 5.359440 -1.662760 -2.192480 -6.469440 -0.000000 -176.027000 -7.221320 -19.715300 39.081100 -0.000007 -0.000012 0.069594 -0.026732 68.982900 40.985400 -0.000006 -0.000013 4.157660 -8.041370 -51.875200 11.754300 -0.000000 0.000003 -0.008613 -0.092972 -20.363300 -2.192510 6.469440 -0.000001 -177.412000 5.073510 173.082000 -39.081100 -0.002282 -0.040193 0.032430 -0.052747 28.906900 -40.985400 0.000008 0.000006 8.574280 6.338220 -69.115200 -11.754300 -0.000006 -0.000006 -0.005535 -0.066548 -19.281200
0.000000 0.000000 0.000000 0.000000 0.000000 -0.000000 92.635500 91.779200 -110.694000 88.594300 4.516210 1.314380 15.735700 0.000005 -0.000001 98.325800 83.542000 -97.431500 8.984550 -0.406207 -0.000000 5.002090 1.844920 1.706090 16.377300 -0.000001 -0.000001 0.159005 -5.478700 2.505180 6.456720 -0.000001 -0.000000 0.509154 -7.087180 -3.107660 12.994200 -0.242716 4.980390 -89.564700 -1.310650 -71.623800 5.348090 -0.000007 -0.000001 -77.132400 23.939500 -4.709510 24.328600 0.000019 0.000005 4.520360 15.530400 -16.450200 22.291600 -0.000001 0.000005 3.095970 5.395330 -2.785900 12.994500 -0.242716 -4.980390 87.862400 6.968460 -72.899800 -5.348130 -0.000001 -0.000004 -62.456200 36.578200 -20.212500 -24.328900 0.000322 -0.000009 4.089250 9.787850 -22.815100 -22.291500 -0.000108 -0.000004 10.218300 5.364490 -1.817020 -2.192480 -6.469440 -0.000000 -178.296000 -8.587570 -23.645700 39.081100 -0.000007 -0.000012 0.047188 -0.021435 65.565000 40.985400 -0.000006 -0.000013 4.410770 -8.311030 -53.676700 11.754300 -0.000000 0.000003 -0.008743 -0.094001 -20.405400 -2.192510 6.469440 -0.000001 -178.833000 5.014780 176.991000 -39.081100 -0.002282 -0.040193 0.025237 -0.045446 25.756100 -40.985400 0.000008 0.000006 8.742010 7.689820 -69.355900 -11.754300 -0.000006 -0.000006 -0.005173 -0.063128 -19.141700
0.000000 0.000000 0.000000 0.000000 0.000000 -0.000000 93.047100 91.928300 -107.393000 89.466400 3.508800 1.082790 15.735700 0.000005 -0.000001 101.066000 83.452300 -100.507000 8.984550 -0.406207 -0.000000 5.077720 2.495170 1.006700 16.377300 -0.000001 -0.000001 0.165946 -5.379350 2.554560 6.456720 -0.000001 -0.000000 0.467548 -7.283150 -3.311560 12.994200 -0.242716 4.980390 -89.496300 -1.483440 -71.244100 5.348090 -0.000007 -0.000001 -77.155100 23.106900 -1.676810 24.328600 0.000019 0.000005 4.370820 16.075500 -15.431100 22.291600 -0.000001 0.000005 3.175240 5.382890 -2.390080 12.994500 -0.242716 -4.980390 87.974700 6.782930 -73.331600 -5.348130 -0.000001 -0.000004 -58.948400 36.635200 -26.779600 -24.328900 0.000322 -0.000009 4.235020 8.840340 -25.733200 -22.291500 -0.000108 -0.000004 9.997690 5.375010 -2.142360 -2.192480 -6.469440 -0.000000 179.907000 -8.970440 -26.536000 39.081100 -0.000007 -0.000012 0.028626 -0.017393 58.710500 40.985400 -0.000006 -0.000013 3.948280 -8.213840 -55.268600 11.754300 -0.000000 0.000003 -0.008055 -0.088493 -20.180400 -2.192510 6.469440 -0.000001 179.822000 4.920580 -179.363000 -39.081100 -0.002282 -0.040193 0.016751 -0.032052 22.741900 -40.985400 0.000008 0.000006 8.748040 8.616670 -69.473500 -11.754300 -0.000006 -0.000006 -0.004997 -0.061438 -19.072900
